<svg xmlns="http://www.w3.org/2000/svg" width="1200" height="630" viewBox="0 0 1200 630" fill="none">
  <rect width="1200" height="630" fill="#171717"/>
  <circle cx="200" cy="120" r="280" fill="#0a72ef" fill-opacity="0.18"/>
  <circle cx="1000" cy="520" r="320" fill="#de1d8d" fill-opacity="0.14"/>
  <rect x="80" y="80" width="1040" height="470" rx="28" fill="#ffffff" fill-opacity="0.04" stroke="#ffffff" stroke-opacity="0.08"/>
  <g transform="translate(96,112)">
    <rect width="56" height="56" rx="14" fill="#0a72ef"/>
    <path d="M18 34c8-14 22-22 38-22 10 0 18 3 24 9-6 2-10 6-12 11-2 5-2 11 0 17-8-3-14-8-18-15H18z" fill="#fff"/>
    <text x="76" y="40" fill="#fafafa" font-family="Inter, system-ui, sans-serif" font-size="42" font-weight="700" letter-spacing="-1.5">Tavrion</text>
    <text x="0" y="118" fill="#fafafa" font-family="Inter, system-ui, sans-serif" font-size="54" font-weight="700" letter-spacing="-2">Train the world.</text>
    <text x="0" y="182" fill="#a1a1aa" font-family="Inter, system-ui, sans-serif" font-size="54" font-weight="700" letter-spacing="-2">Scale without limits.</text>
    <text x="0" y="248" fill="#d4d4d8" font-family="Inter, system-ui, sans-serif" font-size="24" font-weight="500">Enterprise LMS · AI mock calls · SCORM · Live coaching</text>
    <rect x="0" y="290" width="210" height="48" rx="10" fill="#0a72ef"/>
    <text x="24" y="322" fill="#ffffff" font-family="Inter, system-ui, sans-serif" font-size="18" font-weight="600">jointavrion.com</text>
  </g>
</svg>
