<svg xmlns="http://www.w3.org/2000/svg" width="1200" height="630" viewBox="0 0 1200 630" fill="none">
  <rect width="1200" height="630" fill="#0a0a0a"/>
  <circle cx="180" cy="100" r="340" fill="#0a72ef" fill-opacity="0.22"/>
  <circle cx="1020" cy="540" r="380" fill="#de1d8d" fill-opacity="0.18"/>
  <circle cx="600" cy="320" r="200" fill="#ff5b4f" fill-opacity="0.08"/>
  <rect x="72" y="72" width="1056" height="486" rx="32" fill="#ffffff" fill-opacity="0.03" stroke="#ffffff" stroke-opacity="0.1"/>
  <g transform="translate(96, 108)">
    <rect width="64" height="64" rx="16" fill="url(#og-grad)"/>
    <path d="M18 21h28v6.4H36.4V43h-8.8v-15.6H18V21z" fill="#fff"/>
    <path d="M43 22.4a17 17 0 0 1 5.6 12.6" stroke="#fff" stroke-width="3.2" stroke-linecap="round" fill="none" opacity="0.9"/>
    <circle cx="47.6" cy="38.4" r="2.8" fill="#fff"/>
    <text x="84" y="46" fill="#fafafa" font-family="Inter, system-ui, sans-serif" font-size="44" font-weight="700" letter-spacing="-1.5">
      Tav<tspan fill="#0a72ef">rion</tspan>
    </text>
    <text x="0" y="148" fill="#fafafa" font-family="Inter, system-ui, sans-serif" font-size="58" font-weight="700" letter-spacing="-2.2">Train the world.</text>
    <text x="0" y="214" fill="#a1a1aa" font-family="Inter, system-ui, sans-serif" font-size="58" font-weight="700" letter-spacing="-2.2">Scale without limits.</text>
    <text x="0" y="282" fill="#d4d4d8" font-family="Inter, system-ui, sans-serif" font-size="26" font-weight="500">Enterprise LMS · AI coaching · SCORM · Skills assessments</text>
    <rect x="0" y="326" width="228" height="52" rx="12" fill="url(#og-grad)"/>
    <text x="26" y="360" fill="#ffffff" font-family="Inter, system-ui, sans-serif" font-size="20" font-weight="600">jointavrion.com</text>
  </g>
  <defs>
    <linearGradient id="og-grad" x1="0" y1="0" x2="64" y2="64" gradientUnits="userSpaceOnUse">
      <stop stop-color="#0a72ef"/>
      <stop offset="1" stop-color="#de1d8d"/>
    </linearGradient>
  </defs>
</svg>
